<svg xmlns="http://www.w3.org/2000/svg" viewBox="0 0 32 32">
  <defs>
    <linearGradient id="bg" x1="0%" y1="0%" x2="100%" y2="100%">
      <stop offset="0%" stop-color="#fb923c"/>
      <stop offset="50%" stop-color="#f97316"/>
      <stop offset="100%" stop-color="#ea580c"/>
    </linearGradient>
  </defs>
  <rect width="32" height="32" rx="7" fill="url(#bg)"/>
  <!-- Lucide UtensilsCrossed, scaled from 24x24 to fit 32x32 with padding -->
  <g transform="translate(4.67, 4.67) scale(0.944)" stroke="white" stroke-width="1.8" stroke-linecap="round" stroke-linejoin="round" fill="none">
    <path d="m16 2-2.3 2.3a3 3 0 0 0 0 4.2l1.8 1.8a3 3 0 0 0 4.2 0L22 8"/>
    <path d="M15 15 3.3 3.3a4.2 4.2 0 0 0 0 6l7.3 7.3c.9.9 2.5.9 3.4 0l1-1v-1z"/>
    <path d="m7.5 13.5-3 3-1.5 5 5-1.5 3-3"/>
    <line x1="14" y1="13" x2="20" y2="19"/>
  </g>
</svg>
